<?xml version="1.0" encoding="UTF-8"?>
<svg id="Layer_1" data-name="Layer 1" xmlns="http://www.w3.org/2000/svg" viewBox="0 0 1000 1000">
  <defs>
    <style>
      .cls-1 {
        fill: #3206c6;
      }

      .cls-2 {
        font-family: Cairo-Regular, Cairo;
        font-size: 43.83px;
      }

      .cls-2, .cls-3 {
        fill: #ff5800;
      }

      .cls-3 {
        fill-rule: evenodd;
      }
    </style>
  </defs>
  <text class="cls-2" transform="translate(117.04 619.73)"><tspan x="0" y="0" xml:space="preserve">C  l  e  a  n   T  e  c  h .. P  u  r  e   F  u  t  u  r  e</tspan></text>
  <path class="cls-3" d="M571.17,521.73c-2.8-3.53-5.1-7.49-6.79-11.75-1.3-3.28-2.24-6.75-2.77-10.35-.32-2.21-.49-4.48-.49-6.78s.17-4.57.49-6.78c.53-3.6,1.46-7.06,2.77-10.35,1.69-4.26,3.99-8.21,6.79-11.75,2.22-2.8,4.77-5.35,7.57-7.57,3.53-2.8,7.49-5.1,11.75-6.79,3.28-1.3,6.75-2.24,10.35-2.77,2.21-.32,4.48-.49,6.78-.49s4.57.17,6.78.49c3.6.53,7.06,1.46,10.35,2.77,4.26,1.69,8.21,3.99,11.75,6.79,2.8,2.22,5.35,4.77,7.57,7.57,2.8,3.53,5.1,7.49,6.79,11.75,1.3,3.28,2.24,6.75,2.77,10.35.32,2.21.49,4.48.49,6.78s-.17,4.57-.49,6.78c-.53,3.6-1.46,7.07-2.77,10.35-1.69,4.26-3.99,8.21-6.79,11.75l36.75,21.22.03-.05,38.52,22.24,6.78-11.75-50.34-29.07-.03.05-13.06-7.54c2.34-5.37,3.92-11.14,4.6-17.19h28.75v-13.57h-28.75c-.68-6.05-2.26-11.82-4.6-17.19l24.89-14.37-.03-.05,38.57-22.27-6.78-11.75-50.35,29.07.03.05-13.12,7.58c-3.55-4.79-7.79-9.03-12.58-12.58l14.38-24.9-11.75-6.78-14.37,24.89c-5.37-2.34-11.14-3.92-17.19-4.6v-73.32h-13.57v73.32c-6.05.68-11.82,2.26-17.19,4.6l-14.37-24.89-11.75,6.78,21.22,36.75-6.84-11.85c-4.79,3.55-9.03,7.79-12.58,12.58l11.85,6.84-24.97-14.42.03-.05-50.34-29.07-6.78,11.75,38.57,22.27-.03.05,24.89,14.37c-2.34,5.37-3.92,11.14-4.6,17.19h-28.75v13.57h28.75c.68,6.05,2.26,11.82,4.6,17.19l11.85-6.84-24.91,14.38-.03-.05-50.34,29.07,6.78,11.75,38.51-22.24.03.05,36.75-21.22h0Z"/>
  <path class="cls-1" d="M179.58,477.65l3.74-6.26h8.12v29.56h-8.01l-1.36-3.11c-4.66-9.71-12.15-15.4-22.47-17.06-1.42-.25-2.79-.37-4.12-.37h-1.25c-7.57,0-13.92,2.61-19.04,7.83-5.12,5.22-8.39,12.59-9.8,22.11-.42,2.92-.62,5.64-.62,8.14v3.13c0,.84.17,2.3.5,4.39,1.25,9.94,4.54,17.66,9.86,23.17,5.08,5.26,11.32,7.89,18.73,7.89,1,0,2.1-.08,3.31-.25,1.21-.17,2.48-.38,3.81-.63,5.41-1.25,9.93-3.82,13.55-7.7,3.62-3.88,5.97-8.75,7.05-14.59.08-.75.19-1.5.31-2.25.13-.75.19-1.54.19-2.38h10.36l-1,23.42c-1.67,1.17-3.41,2.3-5.24,3.38-1.83,1.09-3.74,2.13-5.74,3.13-4.75,2.25-9.55,3.93-14.42,5.01-4.87,1.08-9.76,1.63-14.67,1.63h-4.12c-2-.25-3.46-.42-4.37-.5-13.07-1.5-23.6-6.51-31.59-15.03-7.99-8.52-11.99-18.87-11.99-31.06,0-1.75.06-3.51.19-5.26.13-1.75.52-3.97,1.18-6.64,2.41-10.94,8.04-19.75,16.89-26.43,8.85-6.68,19.72-10.02,32.6-10.02h5.36c1.49.2,2.62.33,3.37.4,2.91.4,5.67.96,8.29,1.66,2.62.71,5.55,1.73,8.79,3.07l2.12.88,1.5.75Z"/>
  <path class="cls-1" d="M193.8,563.83v-8.14h3.75c1.33,0,2.87-.68,4.62-2.03,2-1.27,3.45-3.35,4.37-6.23l25.84-74.66h21.1l28.47,74.77c.91,2.26,1.91,3.93,3,5.02,1.91,2.09,3.79,3.14,5.62,3.14h3.25v8.14h-46.32v-8.14h4.74c2.41-.67,3.62-2.1,3.62-4.29,0-1.18-.29-2.48-.87-3.91l-3.87-10.09h-31.84l-3.25,10.16c-.08.17-.19.66-.31,1.46-.13.81-.19,1.42-.19,1.84,0,2.63,1.29,4.24,3.87,4.83h4.99v8.14h-30.59ZM247.99,529.26l-13.09-37.03-12.68,37.03h25.78Z"/>
  <path class="cls-1" d="M293.43,480.91v-8.14h47.32c10.82,0,19.25,1.75,25.28,5.26,6.03,3.51,10.01,8.73,11.92,15.66,1,3.51,1.5,6.81,1.5,9.9,0,8.35-3.21,15.08-9.61,20.17-6.41,5.09-15.27,7.64-26.59,7.64h-12.98v13.42l.25,2.78c.17,2.11.54,3.67,1.12,4.68.58,1.01,1.66,1.9,3.25,2.66.83.51,1.46.76,1.87.76h5.24v8.14h-48.44v-8.27l.75.12h3.37c1.33,0,2.5-.29,3.5-.88,1.5-.84,2.52-1.76,3.06-2.76.54-1.01.81-2.47.81-4.4v-58.44c0-2.35-.62-4.31-1.87-5.91-1.25-1.59-3.04-2.39-5.37-2.39h-4.37ZM339.8,522.25c10.87,0,16.31-6.18,16.31-18.54l-.38-6.39c-.59-5.59-2.13-9.73-4.64-12.4-2.51-2.67-6.02-4.01-10.54-4.01h-5.27c-3.43,0-5.14,1.34-5.14,4.02l.13,37.32h9.54Z"/>
  <path class="cls-1" d="M384.7,480.91v-8.14h35.16l49.74,63.13v-46.72c0-4.93-2.58-7.68-7.74-8.27h-4.49v-8.14h32.59v8.14h-4.37c-1.17.08-2.35.48-3.56,1.19-1.21.71-2.12,1.59-2.75,2.63-.62,1.05-.94,2.53-.94,4.45v74.66h-17.23l-55.56-70.27v53.97c0,4.77,2.45,7.49,7.37,8.16h4.49v8.14h-32.71v-8.27l1.25.12h3.25c4.99-.67,7.49-3.39,7.49-8.15v-58.35c0-4.93-2.51-7.69-7.54-8.28h-4.45Z"/>
  <path class="cls-1" d="M709.46,480.9v-8.13h43.66v8.13h-3.87c-1.5.25-2.58.86-3.24,1.82-.67.96-1,1.81-1,2.57,0,.34.06.75.19,1.25.13.5.35,1.38.69,2.63l1.12,2.63,18.47,50.47,18.47-50.46.98-2.63c.5-1.44.74-2.63.74-3.56,0-2.37-1.25-3.94-3.74-4.7h-4.86v-8.13h28.81v8.13h-2.99c-1.66.25-3.44,1.34-5.35,3.26-1,1.17-1.91,2.84-2.74,5.01l-1,2.63-26.71,71.95h-18.84l-27.19-72.07-1-2.63c-.92-2.34-1.77-3.95-2.56-4.82-.79-.88-1.42-1.48-1.87-1.82-.46-.33-1.14-.75-2.06-1.26l-.62-.25h-3.49Z"/>
  <path class="cls-1" d="M796.32,563.75v-8.13h3.74c1.33,0,2.87-.68,4.62-2.03,2-1.27,3.45-3.35,4.37-6.23l25.82-74.59h21.08l28.44,74.7c.91,2.25,1.91,3.93,2.99,5.01,1.91,2.09,3.78,3.13,5.61,3.13h3.24v8.13h-46.28v-8.13h4.74c2.41-.67,3.62-2.1,3.62-4.28,0-1.18-.29-2.48-.87-3.91l-3.87-10.08h-31.81l-3.24,10.15c-.08.17-.19.66-.31,1.46-.13.8-.19,1.42-.19,1.84,0,2.62,1.29,4.23,3.87,4.82h4.99v8.13h-30.56ZM850.46,529.21l-13.08-36.99-12.67,36.99h25.75Z"/>
</svg>